<svg width="1280" height="720" xmlns="http://www.w3.org/2000/svg" xmlns:xlink="http://www.w3.org/1999/xlink" overflow="hidden"><g><rect x="0" y="0" width="1280" height="720" fill="#FFFFFF"/><path d="M978 360C978 279.366 1043.37 214 1124 214 1204.63 214 1270 279.366 1270 360 1270 440.634 1204.63 506 1124 506 1043.37 506 978 440.634 978 360Z" stroke="#FFFFFF" stroke-width="2" stroke-miterlimit="8" fill="#0F9ED5" fill-rule="evenodd"/><path d="M987 360C987 284.337 1048.11 223 1123.5 223 1198.89 223 1260 284.337 1260 360 1260 435.663 1198.89 497 1123.5 497 1048.11 497 987 435.663 987 360Z" stroke="#0F9ED5" stroke-width="2" stroke-miterlimit="8" fill="#FFFFFF" fill-rule="evenodd" fill-opacity="0.901961"/><text font-family="Times New Roman,Times New Roman_MSFontService,sans-serif" font-style="italic" font-weight="700" font-size="26.6667" transform="translate(1069.8 354)">Advanced</text><text font-family="Times New Roman,Times New Roman_MSFontService,sans-serif" font-style="italic" font-weight="700" font-size="26.6667" transform="translate(1064.72 381)">Agentic AI</text><path d="M716.776 256.566C773.901 199.44 866.52 199.44 923.645 256.566 958.123 291.044 992.601 325.522 1027.08 360 992.601 394.478 958.123 428.956 923.645 463.434 866.52 520.56 773.901 520.56 716.776 463.434 659.651 406.309 659.651 313.691 716.776 256.566Z" stroke="#FFFFFF" stroke-width="2" stroke-miterlimit="8" fill="#192CC3" fill-rule="evenodd"/><path d="M685 360C685 284.337 746.113 223 821.5 223 896.887 223 958 284.337 958 360 958 435.663 896.887 497 821.5 497 746.113 497 685 435.663 685 360Z" stroke="#192CC3" stroke-width="2" stroke-miterlimit="8" fill="#FFFFFF" fill-rule="evenodd" fill-opacity="0.901961"/><text font-family="Times New Roman,Times New Roman_MSFontService,sans-serif" font-style="italic" font-weight="700" font-size="26.6667" transform="translate(755.598 354)">Production</text><text font-family="Times New Roman,Times New Roman_MSFontService,sans-serif" font-style="italic" font-weight="700" font-size="26.6667" transform="translate(878.578 354)">-</text><text font-family="Times New Roman,Times New Roman_MSFontService,sans-serif" font-style="italic" font-weight="700" font-size="26.6667" transform="translate(755.991 381)">Ready LLM</text><path d="M415.693 256.566C472.819 199.44 565.437 199.44 622.562 256.566 657.04 291.044 691.518 325.522 725.997 360 691.519 394.478 657.04 428.956 622.562 463.434 565.437 520.56 472.819 520.56 415.693 463.434 358.568 406.309 358.568 313.691 415.693 256.566Z" stroke="#FFFFFF" stroke-width="2" stroke-miterlimit="8" fill="#6A22B1" fill-rule="evenodd"/><path d="M383 360C383 284.337 444.113 223 519.5 223 594.887 223 656 284.337 656 360 656 435.663 594.887 497 519.5 497 444.113 497 383 435.663 383 360Z" stroke="#6A22B1" stroke-width="2" stroke-miterlimit="8" fill="#FFFFFF" fill-rule="evenodd" fill-opacity="0.901961"/><text font-family="Times New Roman,Times New Roman_MSFontService,sans-serif" font-style="italic" font-weight="700" font-size="26.6667" transform="translate(471.024 341)">Building</text><text font-family="Times New Roman,Times New Roman_MSFontService,sans-serif" font-style="italic" font-weight="700" font-size="26.6667" transform="translate(438.104 368)">Practical LLM</text><text font-family="Times New Roman,Times New Roman_MSFontService,sans-serif" font-style="italic" font-weight="700" font-size="26.6667" transform="translate(450.297 396)">Applications</text><path d="M113.356 256.566C170.481 199.44 263.1 199.44 320.225 256.566 354.703 291.044 389.181 325.522 423.659 360 389.181 394.478 354.703 428.956 320.225 463.434 263.1 520.56 170.481 520.56 113.356 463.434 56.2309 406.309 56.2309 313.691 113.356 256.566Z" stroke="#FFFFFF" stroke-width="2" stroke-miterlimit="8" fill="#A02B93" fill-rule="evenodd"/><path d="M80 360C80 284.337 141.113 223 216.5 223 291.887 223 353 284.337 353 360 353 435.663 291.887 497 216.5 497 141.113 497 80 435.663 80 360Z" stroke="#A02B93" stroke-width="2" stroke-miterlimit="8" fill="#FFFFFF" fill-rule="evenodd" fill-opacity="0.901961"/><text font-family="Times New Roman,Times New Roman_MSFontService,sans-serif" font-style="italic" font-weight="700" font-size="25.3333" transform="translate(154.9 342)">Foundation</text><text font-family="Times New Roman,Times New Roman_MSFontService,sans-serif" font-style="italic" font-weight="700" font-size="25.3333" transform="translate(138.72 368)">Understanding</text><text font-family="Times New Roman,Times New Roman_MSFontService,sans-serif" font-style="italic" font-weight="700" font-size="25.3333" transform="translate(145.427 394)">Core Concept</text></g></svg>